inDegrees=yes
name=ik_Xsens_quaternion
DataType=double
version=3
OpenSimVersion=4.4-2022-07-23-0e9fedc
endheader
time	pelvis_tilt	pelvis_list	pelvis_rotation	pelvis_tx	pelvis_ty	pelvis_tz	hip_flexion_r	hip_adduction_r	hip_rotation_r	knee_angle_r	knee_angle_r_beta	ankle_angle_r	subtalar_angle_r	mtp_angle_r	hip_flexion_l	hip_adduction_l	hip_rotation_l	knee_angle_l	knee_angle_l_beta	ankle_angle_l	subtalar_angle_l	mtp_angle_l	lumbar_extension	lumbar_bending	lumbar_rotation	arm_flex_r	arm_add_r	arm_rot_r	elbow_flex_r	pro_sup_r	wrist_flex_r	wrist_dev_r	arm_flex_l	arm_add_l	arm_rot_l	elbow_flex_l	pro_sup_l	wrist_flex_l	wrist_dev_l
37.46666666666667	-58.7861331438308	-89.93051899986216	-30.65984861341296	0	0.93	0	45.0000001188616	-9.999999988573334	0	60.0001406196169	1.047200005471906	-4.999999851047217	0	0	89.55253023861268	24.84324278302515	-39.93340138555707	0.109068421682649	0.001903603068315799	-4.999999851047217	0	0	19.12421554502953	11.80052618022157	-46.42199316452928	0	-14.99999998557901	0	75.00017584614771	45.00000025534055	0	5.000000137526114	61.87046473334288	4.297040363691265	-18.11968469050456	0.0516651297674431	45.00000025534055	0	5.000000137526114
37.48333333333333	-58.99508508362425	-89.92029021905313	-30.4398063822394	0	0.93	0	45.0000001188616	-9.999999988573334	0	60.00014061961691	1.047200005471906	-4.999999851047217	0	0	89.42931083296897	24.44743881929289	-39.92386651500023	0.4912589776780428	0.008574086640463174	-4.999999851047217	0	0	18.44909173331133	11.63607886369677	-46.63153634753184	0	-14.99999998558031	0	75.00017584614771	45.00000025534055	0	5.000000137526114	61.49470363752925	4.769788967409632	-18.52439285128592	0.05148845140349978	45.00000025534055	0	5.000000137526114
37.5	-59.08757879641904	-89.94232318063543	-30.03521147809708	0	0.93	0	45.0000001188616	-9.999999988573334	0	60.00014061961691	1.047200005471906	-4.999999851047217	0	0	89.47267781312243	23.67284882057244	-39.9449150113334	2.125323005584236	0.03709388411582676	-4.999999851047217	0	0	17.75900157449435	11.39386363461753	-46.79648118720235	0	-14.99999998559062	0	75.00017584614771	45.00000025534055	0	5.000000137526114	60.9991679376506	5.290435758298297	-18.80645228584612	0.05153523968081333	45.00000025534055	0	5.000000137526114
37.51666666666667	-54.21820524079916	-89.96193097742774	-30.20951451784217	0	0.93	0	45.0000001188616	-9.999999988573334	0	60.00014061961726	1.047200005471912	-4.999999851047217	0	0	89.58191442199882	17.16826089079332	-39.96563763402717	4.067952259763381	0.07099916074681464	-4.999999851047217	0	0	17.16829349258166	9.458965917074689	-42.95389459623969	0	-14.9999999857572	0	75.00017584614771	45.00000025534055	0	5.000000137526114	57.30047891416702	3.914138297089576	-18.34789748501489	0.05356041299002689	45.00000025534055	0	5.000000137526114
37.53333333333333	-50.82910102859989	-89.97270846973896	-29.89060666022149	0	0.93	0	45.0000001188616	-9.999999988573334	0	60.00014061961753	1.047200005471916	-4.999999851047217	0	0	89.57521416270036	12.66311533194026	-39.975752069888	5.89210348592092	0.1028366056975554	-4.999999851047217	0	0	16.71632793080261	7.812462454477235	-40.28434954740456	0	-14.99999998589695	0	75.00017584614771	45.00000025534055	0	5.000000137526114	54.53229226542841	3.247611725537539	-17.86946616866451	0.05490740184689654	45.00000025534055	0	5.000000137526114
37.55	-58.04580260844111	-89.97714565504586	-19.21279113643794	0	0.93	0	45.0000001188616	-9.999999988573334	0	60.00014061961772	1.04720000547192	-4.999999851047217	0	0	88.36664661474714	29.24385941322615	-39.97523436088377	7.296078067030304	0.1273405847522223	-4.999999851047217	0	0	18.53178914424818	4.639788504928253	-47.84198676012982	0	-14.9999999860138	0	75.00017584614771	45.00000025534055	0	5.000000137526114	54.45637962794627	12.63689642263184	-14.28757545939379	0.05501834274016051	45.00000025534055	0	5.000000137526114
37.56666666666666	-58.17906682289026	-89.98189657483481	-17.47498120994165	0	0.93	0	45.0000001188616	-9.999999988573334	0	60.00014061961784	1.047200005471922	-4.999999851047217	0	0	87.92757505065258	29.5247181347286	-39.98011218965399	9.42707118465208	0.1645334309920611	-4.999999851047217	0	0	18.01487129715075	4.673844874906463	-48.71590217650814	0	-14.99999998606126	0	75.00017584614771	45.00000025534055	0	5.000000137526114	54.026115487613	13.91212112793384	-14.18131962296511	0.05505436727100134	45.00000025534055	0	5.000000137526114
37.58333333333334	-59.11445238520876	-89.98587967698633	-16.41003904395267	0	0.93	0	45.0000001188616	-9.999999988573334	0	60.00014061961784	1.047200005471922	-4.999999851047217	0	0	87.49257861822569	29.68643100934446	-39.98439731308002	12.08132600570737	0.2108589168064089	-4.999999851047217	0	0	17.33310117449883	4.744726750382911	-49.78532901352727	0	-14.99999998606303	0	75.00017584614771	45.00000025534055	0	5.000000137526114	53.67242617359131	15.06382451292314	-13.95584263367986	0.05534851275830431	45.00000025534055	0	5.000000137526114
37.6	-60.2022622641615	-89.98894127130836	-15.23939100326544	0	0.93	0	45.0000001188616	-9.999999988573334	0	60.00014061961784	1.047200005471922	-4.999999851047217	0	0	87.0722514117105	29.78891351430299	-39.9876668251919	15.35896156030426	0.2680644489145549	-4.999999851047217	0	0	16.64097424715908	4.839951751974382	-50.97696800452859	0	-14.99999998606421	0	75.00017584614771	45.00000025534055	0	5.000000137526114	53.34098578964478	16.29964574941727	-13.68175193531477	0.0554098809552074	45.00000025534055	0	5.000000137526114
37.61666666666667	-61.40922514650597	-89.99117557655619	-13.95794569986657	0	0.93	0	45.0000001188616	-9.999999988573334	0	60.00014061961784	1.047200005471922	-4.999999851047217	0	0	86.52223182566343	29.86017773304957	-39.99008201889921	19.17391708630749	0.3346479836604636	-4.999999851047217	0	0	15.94908358881086	4.973955453205636	-52.27122294341982	0	-14.99999998606562	0	75.00017584614771	45.00000025534055	0	5.000000137526114	53.00545568322173	17.60556785582729	-13.35530646387462	0.05556995157578254	45.00000025534055	0	5.000000137526114
37.63333333333333	-61.70333565284295	-89.99274226540282	-11.3981968258714	0	0.93	0	45.0000001188616	-9.999999988573334	0	60.00014061961802	1.047200005471925	-4.999999851047217	0	0	85.81515114048456	29.90223150396932	-39.99177016820234	23.80254948214113	0.415432858832234	-4.999999851047217	0	0	14.81224803664075	4.470767002823484	-53.24820481791188	0	-14.99999998611494	0	75.00017584614771	45.00000025534055	0	5.000000137526114	52.10807897794945	18.93278581693087	-11.99214238953564	0.05585802471403092	45.00000025534055	0	5.000000137526114
37.65	-62.14943974028267	-89.99373943190747	-8.468670287194291	0	0.93	0	45.0000001188616	-9.999999988573334	0	60.00014061961812	1.047200005471927	-4.999999851047217	0	0	85.12299076627879	29.92710744293886	-39.99282782733624	29.3505036167329	0.512262925230493	-4.999999851047217	0	0	13.61357714665637	4.003396168116286	-54.46322921650684	0	-14.99999998616634	0	75.00017584614771	45.00000025534055	0	5.000000137526114	51.1301388578847	20.44264235627643	-10.39438110085089	0.05516485764853646	45.00000025534055	0	5.000000137526114
37.66666666666666	-62.71225404099854	-89.99435765979332	-5.258036213445656	0	0.93	0	45.0000001188616	-9.999999988573334	0	60.00014061961822	1.047200005471929	-4.999999851047217	0	0	84.51578765389282	29.94135909605866	-39.99348084353576	35.54333740324591	0.6203482648338925	-4.999999851047217	0	0	12.53760201655517	3.696182086277707	-55.93653899046051	0	-14.9999999862179	0	75.00017584614771	45.00000025534055	0	5.000000137526114	50.04665197857022	22.08071249941024	-8.616382483389788	0.05379425033885282	45.00000025534055	0	5.000000137526114
